<svg width="15" height="15" viewBox="0 0 15 15" fill="none" xmlns="http://www.w3.org/2000/svg">
<path d="M1.8125 4.46875C1.96875 4.3125 2.15375 4.23438 2.3675 4.23438C2.58125 4.23438 2.76604 4.3125 2.92188 4.46875L7.5 9.04688L12.0938 4.45312C12.2396 4.30729 12.4219 4.23438 12.6406 4.23438C12.8594 4.23438 13.0469 4.3125 13.2031 4.46875C13.3594 4.625 13.4375 4.81 13.4375 5.02375C13.4375 5.2375 13.3594 5.42229 13.2031 5.57812L7.9375 10.8281C7.875 10.8906 7.80729 10.935 7.73438 10.9613C7.66146 10.9875 7.58333 11.0004 7.5 11C7.41667 11 7.33854 10.9869 7.26562 10.9606C7.19271 10.9344 7.125 10.8902 7.0625 10.8281L1.79688 5.5625C1.65104 5.41667 1.57812 5.23687 1.57812 5.02312C1.57812 4.80937 1.65625 4.62458 1.8125 4.46875Z" fill="white"/>
</svg>
