<svg width="25" height="25" viewBox="0 0 25 25" fill="none" xmlns="http://www.w3.org/2000/svg">
<path d="M20.073 5.55209C18.6875 4.90626 17.1875 4.43751 15.625 4.16667C15.6113 4.16624 15.5977 4.16881 15.5851 4.17421C15.5725 4.17961 15.5613 4.1877 15.5521 4.19792C15.3646 4.54167 15.1459 4.98959 15 5.33334C13.3427 5.08334 11.6573 5.08334 10 5.33334C9.85421 4.97917 9.63546 4.54167 9.43754 4.19792C9.42712 4.17709 9.39587 4.16667 9.36462 4.16667C7.80212 4.43751 6.31254 4.90626 4.91671 5.55209C4.90629 5.55209 4.89587 5.56251 4.88546 5.57292C2.05212 9.81251 1.27087 13.9375 1.65629 18.0208C1.65629 18.0417 1.66671 18.0625 1.68754 18.0729C3.56254 19.4479 5.36462 20.2813 7.14587 20.8333C7.17712 20.8438 7.20837 20.8333 7.21879 20.8125C7.63546 20.2396 8.01046 19.6354 8.33337 19C8.35421 18.9583 8.33337 18.9167 8.29171 18.9063C7.69796 18.6771 7.13546 18.4063 6.58337 18.0938C6.54171 18.0729 6.54171 18.0104 6.57296 17.9792C6.68754 17.8958 6.80212 17.8021 6.91671 17.7188C6.93754 17.6979 6.96879 17.6979 6.98962 17.7083C10.573 19.3438 14.4375 19.3438 17.9792 17.7083C18 17.6979 18.0313 17.6979 18.0521 17.7188C18.1667 17.8125 18.2813 17.8958 18.3959 17.9896C18.4375 18.0208 18.4375 18.0833 18.3855 18.1042C17.8438 18.4271 17.2709 18.6875 16.6771 18.9167C16.6355 18.9271 16.625 18.9792 16.6355 19.0104C16.9688 19.6458 17.3438 20.25 17.75 20.8229C17.7813 20.8333 17.8125 20.8438 17.8438 20.8333C19.6355 20.2813 21.4375 19.4479 23.3125 18.0729C23.3334 18.0625 23.3438 18.0417 23.3438 18.0208C23.8021 13.3021 22.5834 9.20834 20.1146 5.57292C20.1042 5.56251 20.0938 5.55209 20.073 5.55209ZM8.87504 15.5313C7.80212 15.5313 6.90629 14.5417 6.90629 13.3229C6.90629 12.1042 7.78129 11.1146 8.87504 11.1146C9.97921 11.1146 10.8542 12.1146 10.8438 13.3229C10.8438 14.5417 9.96879 15.5313 8.87504 15.5313ZM16.1355 15.5313C15.0625 15.5313 14.1667 14.5417 14.1667 13.3229C14.1667 12.1042 15.0417 11.1146 16.1355 11.1146C17.2396 11.1146 18.1146 12.1146 18.1042 13.3229C18.1042 14.5417 17.2396 15.5313 16.1355 15.5313Z" fill="#DDDBD5"/>
</svg>
