<svg width="25" height="25" viewBox="0 0 25 25" fill="none" xmlns="http://www.w3.org/2000/svg">
<path d="M12.4999 2.08331C11.132 2.08331 9.77744 2.35275 8.51363 2.87623C7.24982 3.39972 6.1015 4.16701 5.13422 5.13428C3.18072 7.08779 2.08325 9.73731 2.08325 12.5C2.08325 17.1041 5.07284 21.0104 9.20825 22.3958C9.72908 22.4791 9.89575 22.1562 9.89575 21.875V20.1146C7.01033 20.7396 6.39575 18.7187 6.39575 18.7187C5.91658 17.5104 5.2395 17.1875 5.2395 17.1875C4.29159 16.5416 5.31242 16.5625 5.31242 16.5625C6.35408 16.6354 6.90617 17.6354 6.90617 17.6354C7.81242 19.2187 9.34367 18.75 9.93742 18.5C10.0312 17.8229 10.302 17.3646 10.5937 17.1041C8.28117 16.8437 5.85408 15.9479 5.85408 11.9791C5.85408 10.8229 6.24992 9.89581 6.927 9.15623C6.82283 8.89581 6.45825 7.81248 7.03117 6.40623C7.03117 6.40623 7.90617 6.12498 9.89575 7.46873C10.7187 7.23956 11.6145 7.12498 12.4999 7.12498C13.3853 7.12498 14.2812 7.23956 15.1041 7.46873C17.0937 6.12498 17.9687 6.40623 17.9687 6.40623C18.5416 7.81248 18.177 8.89581 18.0728 9.15623C18.7499 9.89581 19.1458 10.8229 19.1458 11.9791C19.1458 15.9583 16.7083 16.8333 14.3853 17.0937C14.7603 17.4166 15.1041 18.0521 15.1041 19.0208V21.875C15.1041 22.1562 15.2708 22.4896 15.802 22.3958C19.9374 21 22.9166 17.1041 22.9166 12.5C22.9166 11.132 22.6472 9.7775 22.1237 8.51369C21.6002 7.24989 20.8329 6.10156 19.8656 5.13428C18.8983 4.16701 17.75 3.39972 16.4862 2.87623C15.2224 2.35275 13.8679 2.08331 12.4999 2.08331Z" fill="#1D2A32"/>
</svg>
