<svg width="25" height="25" viewBox="0 0 25 25" fill="none" xmlns="http://www.w3.org/2000/svg">
<path d="M23.3958 6.25002C22.5937 6.6146 21.7291 6.85419 20.8333 6.96877C21.75 6.41669 22.4583 5.54169 22.7916 4.4896C21.927 5.01044 20.9687 5.37502 19.9583 5.58335C19.1354 4.68752 17.9791 4.16669 16.6666 4.16669C14.2187 4.16669 12.2187 6.16669 12.2187 8.63544C12.2187 8.9896 12.2604 9.33335 12.3333 9.65627C8.62496 9.46877 5.32288 7.68752 3.12496 4.9896C2.73954 5.64585 2.52079 6.41669 2.52079 7.22919C2.52079 8.78127 3.30204 10.1563 4.51038 10.9375C3.77079 10.9375 3.08329 10.7292 2.47913 10.4167V10.4479C2.47913 12.6146 4.02079 14.4271 6.06246 14.8334C5.40697 15.0127 4.71881 15.0377 4.05204 14.9063C4.33497 15.7943 4.88906 16.5713 5.63644 17.1281C6.38381 17.6849 7.28688 17.9934 8.21871 18.0104C6.63916 19.2609 4.68121 19.9368 2.66663 19.9271C2.31246 19.9271 1.95829 19.9063 1.60413 19.8646C3.58329 21.1354 5.93746 21.875 8.45829 21.875C16.6666 21.875 21.177 15.0625 21.177 9.15627C21.177 8.95835 21.177 8.77085 21.1666 8.57294C22.0416 7.94794 22.7916 7.15627 23.3958 6.25002Z" fill="#DDDBD5"/>
</svg>
