<svg width="25" height="25" viewBox="0 0 25 25" fill="none" xmlns="http://www.w3.org/2000/svg">
<path d="M21.4991 9.93652C20.7667 9.93652 20.1222 10.2393 19.6485 10.7129C17.9054 9.50684 15.5567 8.73047 12.9542 8.64746L14.3067 2.55371L18.6134 3.52051C18.6134 4.5752 19.4728 5.43457 20.5274 5.43457C21.6017 5.43457 22.4659 4.55078 22.4659 3.49609C22.4659 2.44141 21.6066 1.55762 20.5274 1.55762C19.7755 1.55762 19.1261 2.01172 18.8038 2.63184L14.048 1.57715C13.8087 1.51367 13.5743 1.68457 13.5108 1.92383L12.0265 8.64258C9.44347 8.75 7.11925 9.52637 5.3712 10.7324C4.89757 10.2393 4.22862 9.93652 3.4962 9.93652C0.781356 9.93652 -0.107316 13.5791 2.37804 14.8242C2.29015 15.21 2.25108 15.6201 2.25108 16.0303C2.25108 20.1221 6.86046 23.4375 12.5196 23.4375C18.2032 23.4375 22.8126 20.1221 22.8126 16.0303C22.8126 15.6201 22.7687 15.1904 22.6612 14.8047C25.0978 13.5547 24.1993 9.93652 21.4991 9.93652ZM6.31847 15.083C6.31847 14.0088 7.17784 13.1445 8.25694 13.1445C9.31163 13.1445 10.171 14.0039 10.171 15.083C10.171 16.1377 9.31163 16.9971 8.25694 16.9971C7.18272 17.002 6.31847 16.1377 6.31847 15.083ZM16.7823 19.6484C15.005 21.4258 9.99034 21.4258 8.213 19.6484C8.01768 19.4775 8.01768 19.1748 8.213 18.9795C8.3839 18.8086 8.68663 18.8086 8.85753 18.9795C10.2149 20.3711 14.7169 20.3955 16.1329 18.9795C16.3038 18.8086 16.6066 18.8086 16.7774 18.9795C16.9776 19.1748 16.9776 19.4775 16.7823 19.6484ZM16.7433 17.002C15.6886 17.002 14.8292 16.1426 14.8292 15.0879C14.8292 14.0137 15.6886 13.1494 16.7433 13.1494C17.8175 13.1494 18.6817 14.0088 18.6817 15.0879C18.6769 16.1377 17.8175 17.002 16.7433 17.002Z" fill="#1D2A32"/>
</svg>
